<svg width="80" height="17" viewBox="0 0 80 17" fill="none" xmlns="http://www.w3.org/2000/svg">
<path fill-rule="evenodd" clip-rule="evenodd" d="M0 1.22713C0 0.97282 0.204064 0.766663 0.455789 0.766663H1.82315C2.07488 0.766663 2.27894 0.97282 2.27894 1.22713V9.5155C2.27894 9.76981 2.48301 9.97597 2.73473 9.97597H8.65998C8.91171 9.97597 9.11577 9.76981 9.11577 9.5155V8.13411C9.11577 7.8798 8.91171 7.67364 8.65998 7.67364H5.92525C5.17008 7.67364 4.55789 7.05517 4.55789 6.29224V2.14806C4.55789 1.38513 5.17008 0.766663 5.92525 0.766663H10.0273C10.7825 0.766663 11.3947 1.38513 11.3947 2.14806V10.8969C11.3947 11.6598 10.7825 12.2783 10.0273 12.2783H1.36737C0.612191 12.2783 0 11.6598 0 10.8969V1.22713ZM9.11577 3.52945C9.11577 3.27515 8.91171 3.06899 8.65998 3.06899H6.83683V4.91085C6.83683 5.16516 7.04089 5.37131 7.29262 5.37131H9.11577V3.52945Z" fill="url(#paint0_linear_48079_919)"/>
<path d="M16.2634 0V12.8015H18.4569V0H16.2634Z" fill="#213F7D"/>
<path d="M29.2528 9.08372C29.5972 5.36599 27.7301 3.49797 24.739 3.49797C21.8385 3.49797 19.9894 5.47587 19.9894 8.22297C19.9894 11.1166 21.8204 13.0395 24.9021 13.0395C26.2617 13.0395 27.8026 12.5634 28.7452 11.5744L27.3313 10.1642C26.8237 10.6954 25.7541 11.0067 24.9384 11.0067C23.3794 11.0067 22.4186 10.2009 22.2736 9.08372H29.2528ZM22.3098 7.23401C22.6361 6.06192 23.615 5.47587 24.8115 5.47587C26.0804 5.47587 26.9868 6.06192 27.1318 7.23401H22.3098Z" fill="#213F7D"/>
<path d="M39.749 12.8015V8.05814C39.749 5.21948 38.0631 3.62616 35.9603 3.62616C34.8364 3.62616 33.93 4.08401 33.0236 4.9814L32.8785 3.75436H30.9026V12.8015H33.0961V8.18634C33.0961 6.81279 34.0206 5.65901 35.3802 5.65901C36.7942 5.65901 37.5374 6.70291 37.5374 8.07646V12.8015H39.749Z" fill="#213F7D"/>
<path d="M45.9822 5.6407C47.3781 5.6407 48.5745 6.70291 48.5745 8.27791C48.5745 9.90785 47.3781 10.9334 45.9822 10.9334C44.5682 10.9334 43.4443 9.85291 43.4443 8.27791C43.4443 6.64797 44.5682 5.6407 45.9822 5.6407ZM48.7196 0V4.99971C48.1938 4.0657 46.7255 3.55291 45.7828 3.55291C43.1724 3.55291 41.2327 5.16454 41.2327 8.27791C41.2327 11.2448 43.2087 13.0029 45.8372 13.0029C46.9249 13.0029 48.0307 12.6366 48.7196 11.5561L48.8646 12.8015H50.9312V0H48.7196Z" fill="#213F7D"/>
<path d="M59.9256 4.70669C58.8923 3.79099 57.8409 3.51628 56.445 3.51628C54.8135 3.51628 52.6744 4.24884 52.6744 6.33663C52.6744 8.38779 54.6866 9.01047 56.3725 9.13867C57.6415 9.21192 58.1491 9.46832 58.1491 10.091C58.1491 10.7503 57.3696 11.1898 56.5357 11.1715C55.5386 11.1532 54.0884 10.6221 53.4539 9.90785L52.3662 11.5012C53.6715 12.8747 55.0854 13.1128 56.4994 13.1128C59.0555 13.1128 60.3425 11.7392 60.3425 10.1459C60.3425 7.7468 58.2034 7.36221 56.5175 7.25233C55.3755 7.17907 54.8498 6.84942 54.8498 6.26337C54.8498 5.69564 55.4299 5.36599 56.4813 5.36599C57.3333 5.36599 58.0584 5.56744 58.6929 6.1718L59.9256 4.70669Z" fill="#213F7D"/>
<path d="M66.0748 10.8602C64.5702 10.8602 63.5369 9.7064 63.5369 8.29622C63.5369 6.88605 64.4795 5.73227 66.0748 5.73227C67.6701 5.73227 68.6127 6.88605 68.6127 8.29622C68.6127 9.7064 67.5794 10.8602 66.0748 10.8602ZM71.0237 16.5741V3.77268H68.9571L68.8121 5.01803C68.1233 4.01076 66.9268 3.57122 65.9116 3.57122C63.1562 3.57122 61.3253 5.6407 61.3253 8.29622C61.3253 10.9334 62.9749 13.0212 65.8391 13.0212C66.7818 13.0212 68.1776 12.7282 68.8121 11.7392V16.5741H71.0237Z" fill="#213F7D"/>
<path d="M72.9664 3.77268V12.8015H75.178V8.03983C75.178 6.37326 76.2476 5.75058 77.4078 5.75058C78.1329 5.75058 78.5498 5.95204 79.003 6.33663L80 4.39535C79.5106 3.90087 78.6223 3.53459 77.6978 3.53459C76.7914 3.53459 75.8669 3.69942 75.178 4.81657L75.0149 3.77268H72.9664Z" fill="#213F7D"/>
<defs>
<linearGradient id="paint0_linear_48079_919" x1="-8.61775e-07" y1="17.919" x2="12.0867" y2="-1.94462" gradientUnits="userSpaceOnUse">
<stop stop-color="#213F7D"/>
<stop offset="1" stop-color="#39CDCC"/>
</linearGradient>
</defs>
</svg>
